<?xml version="1.0"?>
<svg xmlns="http://www.w3.org/2000/svg" xmlns:xlink="http://www.w3.org/1999/xlink" xmlns:svgjs="http://svgjs.com/svgjs" version="1.1" width="512" height="512" x="0" y="0" viewBox="0 0 512 512" style="enable-background:new 0 0 512 512" xml:space="preserve" class=""><g><g xmlns="http://www.w3.org/2000/svg"><g><path d="m464.709 178.968h-251.756c-21.972 0-39.784 17.812-39.784 39.784v150.441c0 21.972 17.812 39.784 39.784 39.784h160.181c1.407 0 2.628.971 2.929 2.345 2.203 10.042 14.519 49.079 73.301 52.892 3.003.195 4.579-3.492 2.339-5.501-10.398-9.326-27.442-28.588-17.759-48.051.511-1.027 1.559-1.685 2.706-1.685h28.058c21.972 0 39.784-17.812 39.784-39.784v-150.441c.001-21.972-17.811-39.784-39.783-39.784z" fill="#f5f5f5" data-original="#fedf30" style="" class=""/></g><g><path d="m451.704 458.71c2.242 2.012.661 5.695-2.342 5.505-6.086-.391-11.671-1.161-16.796-2.252.34-1.081.11-2.342-.901-3.253-10.4-9.319-27.446-28.587-17.767-48.045.51-1.031 1.562-1.692 2.713-1.692h20.039c-1.141 0-2.192.661-2.702 1.692-9.69 19.459 7.356 38.727 17.756 48.045z" fill="#c7c7c7" data-original="#fac600" style="" class=""/></g><g><path d="m504.493 218.755v150.441c0 21.971-17.817 39.777-39.787 39.777h-20.039c21.971 0 39.777-17.807 39.777-39.777v-150.441c0-21.971-17.807-39.787-39.777-39.787h20.039c21.97 0 39.787 17.817 39.787 39.787z" fill="#c7c7c7" data-original="#fac600" style="" class=""/></g><g><path d="m299.047 47.778h-251.756c-21.972 0-39.784 17.812-39.784 39.784v150.442c0 21.972 17.812 39.784 39.784 39.784h28.058c1.141 0 2.189.648 2.698 1.67 9.7 19.471-7.357 38.743-17.757 48.07-2.238 2.007-.653 5.691 2.346 5.496 58.726-3.81 71.072-42.778 73.292-52.864.304-1.383 1.52-2.373 2.936-2.373h160.181c21.972 0 39.784-17.812 39.784-39.784v-150.441c.002-21.972-17.81-39.784-39.782-39.784z" fill="#9775fa" data-original="#cb97e7" style="" class=""/></g><g><path d="m118.851 277.791h20.019c-1.421 0-2.632.991-2.943 2.372-2.222 10.079-14.564 49.056-73.289 52.859-1.642.11-2.853-.941-3.253-2.242 44.402-9.309 54.531-41.579 56.523-50.617.311-1.381 1.522-2.372 2.943-2.372z" fill="#845ef7" data-original="#bd80e1" style="" class=""/></g><g><path d="m338.828 87.562v150.441c0 21.971-17.807 39.787-39.777 39.787h-20.019c21.971 0 39.777-17.817 39.777-39.787v-150.441c0-21.971-17.807-39.787-39.777-39.787h20.019c21.97 0 39.777 17.817 39.777 39.787z" fill="#845ef7" data-original="#bd80e1" style="" class=""/></g><g><path d="m504.493 257.385c4.146 0 7.507-3.361 7.507-7.507v-31.125c0-26.076-21.215-47.291-47.291-47.291h-118.371v-83.9c0-26.077-21.215-47.291-47.291-47.291h-101.683c-4.146 0-7.507 3.361-7.507 7.507s3.361 7.507 7.507 7.507h101.682c17.798 0 32.277 14.479 32.277 32.277v150.441c0 17.798-14.479 32.277-32.277 32.277h-160.18c-4.973 0-9.196 3.399-10.267 8.266-2.054 9.333-11.847 38.298-54.404 45.591 14.212-16.378 17.992-33.136 10.574-48.026-1.791-3.597-5.4-5.831-9.419-5.831h-28.059c-17.798 0-32.277-14.479-32.277-32.277v-150.441c0-17.798 14.479-32.277 32.277-32.277h114.617c4.146 0 7.507-3.361 7.507-7.507s-3.361-7.507-7.507-7.507h-114.617c-26.076 0-47.291 21.215-47.291 47.291v150.441c0 26.077 21.215 47.291 47.291 47.291h25.076c4.803 14.147-8.422 28.872-17.088 36.644-3.377 3.028-4.466 7.871-2.709 12.051 1.674 3.984 5.577 6.548 9.858 6.548.23 0 .462-.007.695-.022 26.961-1.749 48.104-10.649 62.839-26.45 9.96-10.679 14.464-22.087 16.397-28.771h23.302v83.899c0 26.077 21.215 47.291 47.291 47.291h156.686c1.933 6.686 6.43 18.07 16.365 28.736 14.737 15.824 35.892 24.735 62.876 26.485.233.015.464.022.694.022 4.278 0 8.181-2.563 9.854-6.544 1.758-4.182.668-9.028-2.711-12.059-8.663-7.77-21.885-22.495-17.084-36.641h25.076c26.077 0 47.291-21.215 47.291-47.291v-83.877c0-4.146-3.361-7.507-7.507-7.507s-7.507 3.361-7.507 7.507v83.877c0 17.798-14.479 32.277-32.277 32.277h-28.058c-4.022 0-7.635 2.241-9.427 5.848-7.406 14.886-3.622 31.639 10.584 48.009-42.586-7.294-52.362-36.276-54.411-45.614-1.048-4.776-5.363-8.243-10.262-8.243h-160.181c-17.798 0-32.277-14.479-32.277-32.277v-83.899h118.371c26.077 0 47.291-21.215 47.291-47.291v-51.528h118.371c17.797 0 32.277 14.479 32.277 32.277v31.125c0 4.148 3.361 7.509 7.507 7.509z" fill="#000000" data-original="#000000" style="" class=""/><path d="m62.83 113.691h75.465c4.146 0 7.507-3.361 7.507-7.507s-3.361-7.507-7.507-7.507h-75.465c-4.146 0-7.507 3.361-7.507 7.507s3.361 7.507 7.507 7.507z" fill="#000000" data-original="#000000" style="" class=""/><path d="m283.508 136.41h-145.213c-4.146 0-7.507 3.361-7.507 7.507s3.361 7.507 7.507 7.507h145.213c4.146 0 7.507-3.361 7.507-7.507s-3.361-7.507-7.507-7.507z" fill="#000000" data-original="#000000" style="" class=""/><path d="m62.83 151.424h41.126c4.146 0 7.507-3.361 7.507-7.507s-3.361-7.507-7.507-7.507h-41.126c-4.146 0-7.507 3.361-7.507 7.507s3.361 7.507 7.507 7.507z" fill="#000000" data-original="#000000" style="" class=""/><path d="m283.508 174.142h-52.205c-4.146 0-7.507 3.361-7.507 7.507s3.361 7.507 7.507 7.507h52.205c4.146 0 7.507-3.361 7.507-7.507s-3.361-7.507-7.507-7.507z" fill="#000000" data-original="#000000" style="" class=""/><path d="m62.83 189.156h133.144c4.146 0 7.507-3.361 7.507-7.507s-3.361-7.507-7.507-7.507h-133.144c-4.146 0-7.507 3.361-7.507 7.507s3.361 7.507 7.507 7.507z" fill="#000000" data-original="#000000" style="" class=""/><path d="m62.83 226.889h150.93c4.146 0 7.507-3.361 7.507-7.507s-3.361-7.507-7.507-7.507h-150.93c-4.146 0-7.507 3.361-7.507 7.507s3.361 7.507 7.507 7.507z" fill="#000000" data-original="#000000" style="" class=""/><path d="m449.17 267.6h-80.721c-4.146 0-7.507 3.361-7.507 7.507s3.361 7.507 7.507 7.507h80.721c4.146 0 7.507-3.361 7.507-7.507s-3.361-7.507-7.507-7.507z" fill="#000000" data-original="#000000" style="" class=""/><path d="m456.677 312.84c0-4.146-3.361-7.507-7.507-7.507h-165.619c-4.146 0-7.507 3.361-7.507 7.507s3.361 7.507 7.507 7.507h165.619c4.146 0 7.507-3.361 7.507-7.507z" fill="#000000" data-original="#000000" style="" class=""/><path d="m228.492 320.347h20.433c4.146 0 7.507-3.361 7.507-7.507s-3.361-7.507-7.507-7.507h-20.433c-4.146 0-7.507 3.361-7.507 7.507s3.361 7.507 7.507 7.507z" fill="#000000" data-original="#000000" style="" class=""/><path d="m228.492 358.079h150.93c4.146 0 7.507-3.361 7.507-7.507s-3.361-7.507-7.507-7.507h-150.93c-4.146 0-7.507 3.361-7.507 7.507s3.361 7.507 7.507 7.507z" fill="#000000" data-original="#000000" style="" class=""/></g></g></g></svg>
