<?xml version="1.0" encoding="iso-8859-1"?>
<!-- Generator: Adobe Illustrator 16.0.0, SVG Export Plug-In . SVG Version: 6.00 Build 0)  -->
<!DOCTYPE svg PUBLIC "-//W3C//DTD SVG 1.1//EN" "http://www.w3.org/Graphics/SVG/1.1/DTD/svg11.dtd">
<svg version="1.1" id="Capa_1" xmlns="http://www.w3.org/2000/svg" xmlns:xlink="http://www.w3.org/1999/xlink" x="0px" y="0px"
	 width="606.269px" height="606.268px" viewBox="0 0 606.269 606.268" style="enable-background:new 0 0 606.269 606.268;"
	 xml:space="preserve">
<g>
	<g>
		<path d="M577.089,294.953c-8.902-11.658-19.526-21.806-31.574-30.165c-5.66-3.927-11.575-7.416-17.707-10.451
			c0.15-2.825,0.227-5.653,0.227-8.479c0-21.506-4.222-42.391-12.548-62.075c-8.032-18.991-19.522-36.038-34.151-50.667
			c-14.628-14.629-31.676-26.12-50.666-34.152c-19.685-8.326-40.569-12.547-62.075-12.547c-26.931,0-53.566,6.856-77.027,19.827
			c-15.181,8.393-28.937,19.277-40.638,32.067c-15.767-6.682-32.701-10.407-50-10.92c-1.356-0.041-2.736-0.061-4.099-0.061
			c-18.525-0.001-36.579,3.659-53.667,10.881c-16.412,6.937-31.197,16.838-43.943,29.43c-12.772,12.617-22.86,27.306-29.985,43.659
			c-7.435,17.065-11.288,35.156-11.452,53.769c-0.019,2.129,0.011,4.261,0.089,6.391c-14.664,10.479-27.188,23.793-36.773,39.202
			C7.718,332.173,0.595,356.979,0.501,382.397c-0.068,18.411,3.544,36.339,10.738,53.284c6.879,16.205,16.722,30.801,29.254,43.38
			c12.688,12.735,27.479,22.755,43.964,29.783c17.135,7.305,35.262,11.008,53.878,11.008h326.526
			c19.083,0,37.654-3.798,55.197-11.286c16.89-7.21,32.032-17.493,45.008-30.562c12.822-12.915,22.874-27.898,29.878-44.536
			c7.315-17.381,10.956-35.765,10.82-54.643c-0.11-15.405-2.719-30.549-7.753-45.008
			C593.143,319.833,586.103,306.756,577.089,294.953z M464.86,477.012H138.335c-51.951,0-95.188-42.505-94.994-94.456
			c0.135-36.159,20.666-67.508,50.688-83.146c5.904-3.075,9.255-9.58,8.086-16.134c-1.032-5.781-1.546-11.741-1.493-17.83
			c0.465-52.505,44.017-95.282,96.201-95.277c0.94,0,1.891,0.014,2.836,0.042c18.538,0.55,35.75,6.359,50.216,15.975
			c2.64,1.755,5.63,2.603,8.581,2.603c4.893,0,9.674-2.333,12.554-6.731c20.822-31.793,56.742-52.802,97.584-52.802
			c64.397,0,116.601,52.204,116.601,116.601c0,7.964-0.81,15.736-2.341,23.248c-1.567,7.698,3.03,15.361,10.562,17.593
			c39.972,11.845,69.194,48.693,69.509,92.434C563.312,432.964,518.694,477.012,464.86,477.012z"/>
		<path d="M464.861,520.352H138.335c-18.685,0-36.878-3.717-54.075-11.048c-16.545-7.055-31.39-17.11-44.123-29.891
			c-12.577-12.624-22.456-27.272-29.36-43.537c-7.22-17.007-10.846-35.001-10.777-53.481c0.095-25.51,7.244-50.406,20.674-71.998
			c9.59-15.418,21.932-28.601,36.688-39.188c-0.071-2.041-0.098-4.106-0.08-6.145c0.165-18.681,4.032-36.837,11.494-53.964
			c7.15-16.412,17.275-31.153,30.092-43.814c12.792-12.636,27.629-22.573,44.1-29.535c17.145-7.246,35.262-10.92,53.85-10.92
			c1.379,0,2.764,0.021,4.125,0.062c17.232,0.511,34.003,4.151,49.854,10.822c11.775-12.816,25.409-23.55,40.526-31.907
			c23.536-13.012,50.254-19.89,77.269-19.89c21.572,0,42.523,4.235,62.27,12.587c19.052,8.058,36.152,19.584,50.825,34.259
			c14.675,14.675,26.201,31.775,34.259,50.826c8.352,19.746,12.587,40.696,12.587,62.27c0,2.704-0.07,5.453-0.21,8.178
			c6.037,3.006,11.915,6.484,17.476,10.342c12.094,8.391,22.754,18.576,31.687,30.272c9.047,11.847,16.111,24.969,20.998,39.003
			c5.052,14.51,7.67,29.707,7.78,45.168c0.137,18.945-3.518,37.396-10.859,54.841c-7.029,16.696-17.117,31.734-29.984,44.694
			c-13.022,13.116-28.218,23.435-45.166,30.67C502.648,516.542,484.011,520.352,464.861,520.352z M196.83,127.83
			c-18.465,0-36.452,3.647-53.472,10.841c-16.354,6.912-31.085,16.778-43.787,29.325c-12.726,12.572-22.779,27.208-29.878,43.503
			c-7.408,17.003-11.247,35.028-11.411,53.574c-0.019,2.113,0.011,4.256,0.089,6.368l0.01,0.269l-0.219,0.156
			c-14.745,10.537-27.072,23.679-36.639,39.059c-13.332,21.435-20.429,46.15-20.523,71.475
			c-0.068,18.344,3.531,36.205,10.698,53.087c6.854,16.146,16.661,30.688,29.148,43.223c12.641,12.688,27.38,22.672,43.807,29.676
			c17.071,7.277,35.132,10.968,53.682,10.968h326.526c19.014,0,37.519-3.784,55.001-11.246c16.829-7.184,31.918-17.431,44.85-30.455
			c12.776-12.868,22.793-27.8,29.771-44.378c7.289-17.318,10.917-35.636,10.781-54.444c-0.11-15.352-2.709-30.44-7.726-44.848
			c-4.851-13.933-11.865-26.962-20.848-38.725c-8.868-11.614-19.454-21.727-31.462-30.058c-5.61-3.892-11.547-7.396-17.644-10.413
			l-0.295-0.146l0.018-0.329c0.149-2.814,0.226-5.658,0.226-8.453c0-21.439-4.208-42.258-12.508-61.88
			c-8.008-18.932-19.462-35.925-34.045-50.508c-14.582-14.583-31.575-26.037-50.507-34.045c-19.623-8.3-40.443-12.508-61.881-12.508
			c-26.846,0-53.397,6.834-76.785,19.765c-15.125,8.362-28.754,19.117-40.511,31.967l-0.239,0.261l-0.325-0.138
			c-15.832-6.709-32.594-10.37-49.819-10.881C199.562,127.85,198.188,127.83,196.83,127.83z M464.86,477.512H138.335
			c-25.548,0-49.644-10.062-67.848-28.334c-17.921-17.988-27.739-41.649-27.646-66.624c0.131-35.255,19.657-67.284,50.957-83.587
			c5.805-3.024,8.95-9.294,7.825-15.603c-1.049-5.876-1.554-11.906-1.5-17.922c0.226-25.485,10.472-49.521,28.852-67.678
			c18.338-18.117,42.432-28.095,67.841-28.095h0.008c0.945,0,1.901,0.014,2.851,0.042c18.024,0.535,35.479,6.088,50.478,16.059
			c2.479,1.648,5.351,2.52,8.304,2.52c4.932,0,9.468-2.432,12.135-6.505c21.746-33.205,58.382-53.028,98.002-53.028
			c64.569,0,117.101,52.531,117.101,117.101c0,7.84-0.791,15.695-2.351,23.348c-1.507,7.397,2.98,14.87,10.215,17.014
			c19.658,5.826,37.373,18.053,49.881,34.432c12.921,16.919,19.832,37.141,19.985,58.478c0.187,25.886-9.901,50.406-28.405,69.044
			C516.235,467.092,491.318,477.512,464.86,477.512z M196.815,170.669c-25.145,0-48.988,9.875-67.139,27.806
			c-18.19,17.971-28.332,41.756-28.555,66.976c-0.053,5.955,0.447,11.922,1.485,17.738c1.203,6.741-2.152,13.438-8.347,16.665
			c-30.969,16.131-50.289,47.821-50.418,82.704c-0.092,24.707,9.623,48.115,27.355,65.914c18.015,18.082,41.858,28.04,67.139,28.04
			H464.86c26.189,0,50.854-10.315,69.45-29.045c18.314-18.447,28.299-42.714,28.114-68.331c-0.151-21.119-6.992-41.133-19.78-57.879
			c-12.38-16.211-29.914-28.314-49.37-34.08c-7.728-2.29-12.52-10.272-10.911-18.172c1.547-7.587,2.331-15.375,2.331-23.148
			c0-64.019-52.083-116.101-116.101-116.101c-39.281,0-75.605,19.654-97.166,52.576c-2.853,4.356-7.702,6.958-12.972,6.958
			c-3.151,0-6.214-0.929-8.858-2.687c-14.843-9.868-32.117-15.363-49.954-15.892c-0.94-0.028-1.886-0.042-2.822-0.042H196.815z"/>
	</g>
	<g>
		<path d="M388.409,252.371c-8.365-8.365-21.928-8.365-30.292,0l-49.476,49.476l-49.477-49.476c-8.365-8.365-21.928-8.365-30.292,0
			c-8.365,8.366-8.365,21.928,0,30.293l49.476,49.476l-49.476,49.476c-8.365,8.365-8.365,21.928,0,30.293
			c4.183,4.183,9.664,6.273,15.146,6.273c5.481,0,10.964-2.091,15.146-6.273l49.476-49.476l49.477,49.476
			c4.182,4.183,9.664,6.273,15.146,6.273c5.482,0,10.965-2.091,15.146-6.273c8.365-8.365,8.365-21.928,0-30.293l-49.476-49.476
			l49.476-49.476C396.774,274.299,396.774,260.737,388.409,252.371z"/>
		<path d="M373.264,418.682c-5.855,0-11.36-2.28-15.499-6.42l-49.123-49.122l-49.122,49.122c-4.14,4.14-9.645,6.42-15.5,6.42
			s-11.36-2.28-15.5-6.42c-8.546-8.547-8.546-22.453,0-31l49.123-49.122l-49.123-49.123c-8.546-8.546-8.546-22.453,0-31
			c4.14-4.14,9.644-6.42,15.5-6.42c5.855,0,11.359,2.28,15.5,6.42l49.123,49.123l49.122-49.123c4.14-4.14,9.644-6.42,15.499-6.42
			c5.854,0,11.359,2.28,15.5,6.42c8.546,8.547,8.547,22.453,0.001,31l-49.122,49.123l49.122,49.122
			c4.141,4.141,6.42,9.645,6.42,15.5s-2.279,11.359-6.42,15.5C384.625,416.402,379.12,418.682,373.264,418.682z M308.642,361.726
			l49.83,49.829c3.95,3.951,9.203,6.127,14.792,6.127s10.843-2.176,14.793-6.127c3.951-3.951,6.127-9.205,6.127-14.793
			s-2.176-10.842-6.127-14.793l-49.829-49.829l49.829-49.83c8.156-8.157,8.155-21.429-0.001-29.586
			c-3.951-3.951-9.205-6.127-14.793-6.127s-10.841,2.176-14.792,6.127l-49.829,49.83l-49.83-49.83
			c-3.951-3.951-9.205-6.127-14.792-6.127c-5.588,0-10.841,2.176-14.792,6.127c-8.156,8.157-8.156,21.429,0,29.586l49.83,49.83
			l-49.83,49.829c-8.156,8.157-8.156,21.429,0,29.586c3.951,3.951,9.205,6.127,14.793,6.127s10.842-2.176,14.793-6.127
			L308.642,361.726z"/>
	</g>
</g>
<g>
</g>
<g>
</g>
<g>
</g>
<g>
</g>
<g>
</g>
<g>
</g>
<g>
</g>
<g>
</g>
<g>
</g>
<g>
</g>
<g>
</g>
<g>
</g>
<g>
</g>
<g>
</g>
<g>
</g>
</svg>
